<?xml version="1.0" encoding="iso-8859-1"?>
<!-- Generator: Adobe Illustrator 19.0.0, SVG Export Plug-In . SVG Version: 6.00 Build 0)  -->
<svg version="1.1" id="Capa_1" xmlns="http://www.w3.org/2000/svg" xmlns:xlink="http://www.w3.org/1999/xlink" x="0px" y="0px"
	 viewBox="0 0 512.001 512.001" style="enable-background:new 0 0 512.001 512.001;" xml:space="preserve">
<path style="fill:#CCCCFF;" d="M344.707,507.825c-92.01-0.064-166.581-74.634-166.645-166.645c0-5.523,0-10.621,0.85-16.569
	c1.051-10.759,10.642-18.629,21.401-17.578c10.759,1.052,18.629,10.642,17.578,21.401c0,4.142-0.637,8.391-0.637,12.745
	c0,70.386,57.056,127.453,127.442,127.464c70.386,0.011,127.453-57.056,127.464-127.442
	c0.011-70.386-57.056-127.453-127.442-127.464c-15.539,0-30.95,2.836-45.469,8.38c-10.515,2.687-21.221-3.643-23.908-14.158
	c-2.305-8.985,1.997-18.364,10.313-22.485c85.935-32.947,182.311,10.005,215.258,95.94s-10.005,182.311-95.94,215.258
	c-19.171,7.35-39.532,11.088-60.052,11.046L344.707,507.825z"/>
<path style="fill:#0000FF;" d="M334.83,340.649H21.295C9.559,340.67,0.032,331.186,0,319.46c-0.011-3.494,0.85-6.946,2.496-10.037
	L159.369,15.432c5.512-10.356,18.385-14.275,28.741-8.752c3.728,1.986,6.776,5.034,8.752,8.752l156.767,293.992
	c5.512,10.356,1.593,23.218-8.762,28.73C341.776,339.799,338.324,340.66,334.83,340.649z M56.664,298.165h242.798L178.063,70.555
	L56.664,298.165z"/>
<g>
</g>
<g>
</g>
<g>
</g>
<g>
</g>
<g>
</g>
<g>
</g>
<g>
</g>
<g>
</g>
<g>
</g>
<g>
</g>
<g>
</g>
<g>
</g>
<g>
</g>
<g>
</g>
<g>
</g>
</svg>
